# xmcd CD database file
#
# Track frame offsets:
#	183
#	11248
#	25755
#	37218
#	47720
#	59855
#	70898
#	80490
#	92195
#	102010
#	114735
#	125785
#	137575
#	151805
#	163198
#	176563
#	185928
#	200178
#	212228
#	222200
#	233018
#	243753
#	257345
#	267423
#
# Disc length: 3696 seconds
#
# Revision: 1
# Processed by: cddbd v1.5.2PL0 Copyright (c) Steve Scherf et al.
# Submitted via: CDex 1.70beta2
#
DISCID=6c0e6e18
DTITLE=Richard Anthony - A Présent Tu Peux T'en Aller
DYEAR=1993
DGENRE=Chanson
TTITLE0=Donne Moi Ma Chance (Too Late To Worry) (1-1963)
TTITLE1=Après-Toi (The Next Time) (1-1963)
TTITLE2=Sur Le Toit (up On The Roof) (2-1963)
TTITLE3=Ruby Baby (Ruby Baby) (2-1963)
TTITLE4=Je Suis Loin De Toi (2-1963)
TTITLE5=En Écoutant La Pluie (Rhythm Of The Rain) (21963)
TTITLE6=Ne Compte Pas Sur Moi (Count On Me) (4-19639
TTITLE7=Les Beaux Jours (Wildwood days) (5-1963)
TTITLE8=C'est Ma Fête (It's My Party)
TTITLE9=Le Ciel Est Si Beau Ce Soir (A Song For Young Love) (5-1963)
TTITLE10=Son Meilleur Copain (What To Do With Laurie) (5-1963)
TTITLE11=Tchin-Tchin (Cheat Cheat) (6-1963)
TTITLE12=Rose (Sally Go 'round The Roses) (9-1963)
TTITLE13=Et Je M'en Vais (The He Kissed Me) (9-1963)
TTITLE14=Attends (Hey Girl) (9-1963)
TTITLE15=Toi L'ami (All My Loving) (1-1964)
TTITLE16=Ecoute Dans Le Vent (Blowin In The Wind) (1-1964)
TTITLE17=A Présent Tu Peux T'en Aller (I Only Want To Be With You) (1-1964)
TTITLE18=Elle A Dit "Non" (Loddy Lo) (1-1964)
TTITLE19=Rien Que Toi (You'll Never Walk Alone) (1-1964)
TTITLE20=A Toi De Choisir (Swingng On A Star) (1-1964)
TTITLE21=Maria ( Maria) (2-1964)
TTITLE22=Qu'est-Ce Qui M'attend ? (2-1964)
TTITLE23=Faut Que Tu Y Penses
EXTD=YEAR: 1993
EXTT0=
EXTT1=
EXTT2=
EXTT3=
EXTT4=
EXTT5=
EXTT6=
EXTT7=
EXTT8=
EXTT9=
EXTT10=
EXTT11=
EXTT12=
EXTT13=
EXTT14=
EXTT15=
EXTT16=
EXTT17=
EXTT18=
EXTT19=
EXTT20=
EXTT21=
EXTT22=
EXTT23=
PLAYORDER=
